<svg xmlns="http://www.w3.org/2000/svg" viewBox="0 0 10 9" width="32" height="29" style="image-rendering:pixelated">
  <!-- Row 0 -->
  <rect x="2" y="0" width="2" height="1" fill="#111"/>
  <rect x="6" y="0" width="2" height="1" fill="#111"/>
  <!-- Row 1 -->
  <rect x="1" y="1" width="1" height="1" fill="#111"/>
  <rect x="2" y="1" width="1" height="1" fill="#F00"/>
  <rect x="3" y="1" width="1" height="1" fill="#F33"/>
  <rect x="4" y="1" width="1" height="1" fill="#111"/>
  <rect x="5" y="1" width="1" height="1" fill="#111"/>
  <rect x="6" y="1" width="1" height="1" fill="#F00"/>
  <rect x="7" y="1" width="1" height="1" fill="#F00"/>
  <rect x="8" y="1" width="1" height="1" fill="#111"/>
  <!-- Row 2 -->
  <rect x="0" y="2" width="1" height="1" fill="#111"/>
  <rect x="1" y="2" width="1" height="1" fill="#F00"/>
  <rect x="2" y="2" width="1" height="1" fill="#FFF"/>
  <rect x="3" y="2" width="1" height="1" fill="#F33"/>
  <rect x="4" y="2" width="2" height="1" fill="#F00"/>
  <rect x="6" y="2" width="1" height="1" fill="#F00"/>
  <rect x="7" y="2" width="1" height="1" fill="#C00"/>
  <rect x="8" y="2" width="1" height="1" fill="#F00"/>
  <rect x="9" y="2" width="1" height="1" fill="#111"/>
  <!-- Row 3 -->
  <rect x="0" y="3" width="1" height="1" fill="#111"/>
  <rect x="1" y="3" width="1" height="1" fill="#F00"/>
  <rect x="2" y="3" width="1" height="1" fill="#F33"/>
  <rect x="3" y="3" width="5" height="1" fill="#F00"/>
  <rect x="7" y="3" width="1" height="1" fill="#C00"/>
  <rect x="8" y="3" width="1" height="1" fill="#F00"/>
  <rect x="9" y="3" width="1" height="1" fill="#111"/>
  <!-- Row 4 -->
  <rect x="0" y="4" width="1" height="1" fill="#111"/>
  <rect x="1" y="4" width="8" height="1" fill="#F00"/>
  <rect x="9" y="4" width="1" height="1" fill="#111"/>
  <!-- Row 5 -->
  <rect x="1" y="5" width="1" height="1" fill="#111"/>
  <rect x="2" y="5" width="6" height="1" fill="#F00"/>
  <rect x="8" y="5" width="1" height="1" fill="#111"/>
  <!-- Row 6 -->
  <rect x="2" y="6" width="1" height="1" fill="#111"/>
  <rect x="3" y="6" width="4" height="1" fill="#F00"/>
  <rect x="7" y="6" width="1" height="1" fill="#111"/>
  <!-- Row 7 -->
  <rect x="3" y="7" width="1" height="1" fill="#111"/>
  <rect x="4" y="7" width="2" height="1" fill="#F00"/>
  <rect x="6" y="7" width="1" height="1" fill="#111"/>
  <!-- Row 8 -->
  <rect x="4" y="8" width="2" height="1" fill="#111"/>
</svg>
